# xmcd
# Copyright (C) 1995-1998 Ti Kan
#
# Track frame offsets:
#       150
#       16448
#       30412
#       47635
#       56405
#       77545
#       93875
#       110452
#       139889
#       146386
#       162802
#       182206
#       195342
#
# Disc length: 2857 seconds
#
# Revision: 0
# Processed by: cddbd v1.5.2PL0 Copyright (c) Steve Scherf et al.
# Submitted via: CD-Import v1.0
#
DISCID=9c0b270d
DTITLE=Del Fume - Amor&psyche
DYEAR=09
DGENRE=
TTITLE0=Endorphines
TTITLE1=Princess R'n'r
TTITLE2=Satin Girl
TTITLE3=Quiet Thieves
TTITLE4=Mascarqa
TTITLE5=We Are The Morlocks
TTITLE6=Into Your Arms Again
TTITLE7=Upside Down
TTITLE8=I Used To Circle
TTITLE9=Porcelain
TTITLE10=A Secret Never Found
TTITLE11=The Circus Of Soroche
TTITLE12=Replica No.1 (Reprise)
EXTD=
EXTT0=
EXTT1=
EXTT2=
EXTT3=
EXTT4=
EXTT5=
EXTT6=
EXTT7=
EXTT8=
EXTT9=
EXTT10=
EXTT11=
EXTT12=
PLAYORDER=
